<svg xmlns="http://www.w3.org/2000/svg" width="218.92000000000002" height="35" viewBox="0 0 218.92000000000002 35"><rect class="svg__rect" x="0" y="0" width="74.36" height="35" fill="#419B5A"/><rect class="svg__rect" x="72.36" y="0" width="146.56" height="35" fill="#62E602"/><path class="svg__text" d="M13.78 19.42L13.78 19.42L15.27 19.42Q15.27 20.15 15.75 20.55Q16.23 20.95 17.12 20.95L17.12 20.95Q17.90 20.95 18.29 20.63Q18.68 20.32 18.68 19.80L18.68 19.80Q18.68 19.24 18.28 18.94Q17.89 18.63 16.85 18.32Q15.82 18.01 15.21 17.63L15.21 17.63Q14.05 16.90 14.05 15.72L14.05 15.72Q14.05 14.69 14.89 14.02Q15.73 13.35 17.07 13.35L17.07 13.35Q17.96 13.35 18.66 13.68Q19.36 14.01 19.75 14.61Q20.15 15.22 20.15 15.96L20.15 15.96L18.68 15.96Q18.68 15.29 18.26 14.91Q17.84 14.54 17.06 14.54L17.06 14.54Q16.33 14.54 15.93 14.85Q15.53 15.16 15.53 15.71L15.53 15.71Q15.53 16.18 15.96 16.50Q16.40 16.81 17.39 17.10Q18.39 17.40 18.99 17.78Q19.60 18.16 19.88 18.65Q20.16 19.13 20.16 19.79L20.16 19.79Q20.16 20.86 19.34 21.49Q18.52 22.12 17.12 22.12L17.12 22.12Q16.20 22.12 15.42 21.77Q14.64 21.43 14.21 20.83Q13.78 20.22 13.78 19.42ZM26.13 14.66L23.49 14.66L23.49 13.47L30.26 13.47L30.26 14.66L27.60 14.66L27.60 22L26.13 22L26.13 14.66ZM34.80 22L33.25 22L36.48 13.47L37.81 13.47L41.04 22L39.49 22L38.79 20.01L35.49 20.01L34.80 22ZM37.14 15.28L35.90 18.82L38.38 18.82L37.14 15.28ZM46.67 14.66L44.04 14.66L44.04 13.47L50.80 13.47L50.80 14.66L48.14 14.66L48.14 22L46.67 22L46.67 14.66ZM60.14 22L54.56 22L54.56 13.47L60.10 13.47L60.10 14.66L56.04 14.66L56.04 17.02L59.55 17.02L59.55 18.19L56.04 18.19L56.04 20.82L60.14 20.82L60.14 22Z" fill="#FFFFFF"/><path class="svg__text" d="M88.93 22L86.55 22L86.55 13.60L88.93 13.60L88.93 22ZM96.43 22L94.10 22L94.10 13.60L96.06 13.60L99.77 18.07L99.77 13.60L102.09 13.60L102.09 22L100.14 22L96.43 17.52L96.43 22ZM116.61 22L114.23 22L114.23 13.60L118.07 13.60Q119.21 13.60 120.05 13.98Q120.89 14.35 121.35 15.06Q121.80 15.76 121.80 16.71L121.80 16.71Q121.80 17.66 121.35 18.35Q120.89 19.05 120.05 19.42Q119.21 19.80 118.07 19.80L118.07 19.80L116.61 19.80L116.61 22ZM116.61 15.47L116.61 17.93L117.92 17.93Q118.66 17.93 119.03 17.61Q119.40 17.29 119.40 16.71L119.40 16.71Q119.40 16.12 119.03 15.80Q118.66 15.47 117.92 15.47L117.92 15.47L116.61 15.47ZM128.93 22L126.56 22L126.56 13.60L130.40 13.60Q131.54 13.60 132.38 13.98Q133.22 14.35 133.67 15.06Q134.13 15.76 134.13 16.71L134.13 16.71Q134.13 17.62 133.70 18.30Q133.28 18.98 132.49 19.36L132.49 19.36L134.30 22L131.75 22L130.23 19.77L128.93 19.77L128.93 22ZM128.93 15.47L128.93 17.93L130.25 17.93Q130.99 17.93 131.36 17.61Q131.73 17.29 131.73 16.71L131.73 16.71Q131.73 16.12 131.36 15.79Q130.99 15.47 130.25 15.47L130.25 15.47L128.93 15.47ZM138.49 17.80L138.49 17.80Q138.49 16.55 139.09 15.55Q139.70 14.56 140.76 14.00Q141.83 13.43 143.16 13.43L143.16 13.43Q144.49 13.43 145.55 14.00Q146.61 14.56 147.22 15.55Q147.83 16.55 147.83 17.80L147.83 17.80Q147.83 19.05 147.22 20.04Q146.61 21.04 145.55 21.60Q144.49 22.17 143.16 22.17L143.16 22.17Q141.83 22.17 140.76 21.60Q139.70 21.04 139.09 20.04Q138.49 19.05 138.49 17.80ZM140.89 17.80L140.89 17.80Q140.89 18.51 141.19 19.05Q141.49 19.60 142.01 19.90Q142.52 20.20 143.16 20.20L143.16 20.20Q143.79 20.20 144.31 19.90Q144.83 19.60 145.12 19.05Q145.42 18.51 145.42 17.80L145.42 17.80Q145.42 17.09 145.12 16.54Q144.83 16 144.31 15.70Q143.79 15.40 143.16 15.40L143.16 15.40Q142.52 15.40 142.00 15.70Q141.49 16 141.19 16.54Q140.89 17.09 140.89 17.80ZM152.13 17.80L152.13 17.80Q152.13 16.54 152.72 15.54Q153.32 14.55 154.39 13.99Q155.46 13.43 156.80 13.43L156.80 13.43Q157.98 13.43 158.92 13.83Q159.85 14.22 160.48 14.97L160.48 14.97L158.96 16.33Q158.12 15.40 156.94 15.40L156.94 15.40Q156.93 15.40 156.92 15.40L156.92 15.40Q155.85 15.40 155.18 16.06Q154.52 16.71 154.52 17.80L154.52 17.80Q154.52 18.50 154.82 19.04Q155.13 19.59 155.67 19.89Q156.20 20.20 156.90 20.20L156.90 20.20Q157.59 20.20 158.18 19.93L158.18 19.93L158.18 17.62L160.28 17.62L160.28 21.10Q159.56 21.61 158.63 21.89Q157.69 22.17 156.75 22.17L156.75 22.17Q155.44 22.17 154.38 21.61Q153.32 21.05 152.72 20.05Q152.13 19.06 152.13 17.80ZM167.65 22L165.27 22L165.27 13.60L169.12 13.60Q170.26 13.60 171.10 13.98Q171.94 14.35 172.39 15.06Q172.85 15.76 172.85 16.71L172.85 16.71Q172.85 17.62 172.42 18.30Q172.00 18.98 171.20 19.36L171.20 19.36L173.01 22L170.47 22L168.95 19.77L167.65 19.77L167.65 22ZM167.65 15.47L167.65 17.93L168.97 17.93Q169.70 17.93 170.08 17.61Q170.45 17.29 170.45 16.71L170.45 16.71Q170.45 16.12 170.08 15.79Q169.70 15.47 168.97 15.47L168.97 15.47L167.65 15.47ZM184.38 22L177.64 22L177.64 13.60L184.23 13.60L184.23 15.44L179.99 15.44L179.99 16.85L183.73 16.85L183.73 18.63L179.99 18.63L179.99 20.17L184.38 20.17L184.38 22ZM188.60 21.24L188.60 21.24L189.38 19.49Q189.94 19.86 190.69 20.09Q191.43 20.32 192.15 20.32L192.15 20.32Q193.52 20.32 193.52 19.64L193.52 19.64Q193.52 19.28 193.13 19.11Q192.74 18.93 191.88 18.74L191.88 18.74Q190.93 18.53 190.29 18.30Q189.66 18.06 189.20 17.55Q188.75 17.03 188.75 16.16L188.75 16.16Q188.75 15.39 189.17 14.77Q189.59 14.15 190.42 13.79Q191.25 13.43 192.46 13.43L192.46 13.43Q193.29 13.43 194.09 13.62Q194.90 13.80 195.51 14.17L195.51 14.17L194.78 15.93Q193.58 15.28 192.45 15.28L192.45 15.28Q191.74 15.28 191.42 15.49Q191.10 15.70 191.10 16.04L191.10 16.04Q191.10 16.37 191.48 16.54Q191.86 16.71 192.71 16.89L192.71 16.89Q193.67 17.10 194.30 17.33Q194.93 17.56 195.40 18.07Q195.86 18.58 195.86 19.46L195.86 19.46Q195.86 20.21 195.44 20.83Q195.02 21.44 194.18 21.80Q193.34 22.17 192.14 22.17L192.14 22.17Q191.12 22.17 190.16 21.92Q189.20 21.67 188.60 21.24ZM199.85 21.24L199.85 21.24L200.63 19.49Q201.19 19.86 201.94 20.09Q202.68 20.32 203.40 20.32L203.40 20.32Q204.77 20.32 204.77 19.64L204.77 19.64Q204.77 19.28 204.38 19.11Q203.99 18.93 203.13 18.74L203.13 18.74Q202.18 18.53 201.54 18.30Q200.91 18.06 200.45 17.55Q200.00 17.03 200.00 16.16L200.00 16.16Q200.00 15.39 200.42 14.77Q200.84 14.15 201.67 13.79Q202.50 13.43 203.71 13.43L203.71 13.43Q204.54 13.43 205.34 13.62Q206.15 13.80 206.76 14.17L206.76 14.17L206.03 15.93Q204.83 15.28 203.70 15.28L203.70 15.28Q202.99 15.28 202.67 15.49Q202.35 15.70 202.35 16.04L202.35 16.04Q202.35 16.37 202.73 16.54Q203.11 16.71 203.96 16.89L203.96 16.89Q204.92 17.10 205.55 17.33Q206.18 17.56 206.65 18.07Q207.11 18.58 207.11 19.46L207.11 19.46Q207.11 20.21 206.69 20.83Q206.27 21.44 205.43 21.80Q204.59 22.17 203.39 22.17L203.39 22.17Q202.37 22.17 201.41 21.92Q200.45 21.67 199.85 21.24Z" fill="#FFFFFF" x="85.36"/></svg>